PathFileType	4	(X/Y/Z)	Walk2.trc
DataRate	CameraRate	NumFrames	NumMarkers	Units	OrigDataRate	OrigDataStartFrame	OrigNumFrames
200.000000	200.000000	7	67	mm	200.000000	787	955
Frame#	Times		LBHD		LowerBodyModelVer		LWRR		RLFC		LElbow		RTH2		RToe		LACR1		RMT5		C7		RTB2		LCAR		LUA1		RTB3		RMT1		RTB4		LWRU		RMMAL		LToe		RCAR		RCAL		LTH3		RASI		RFA1		LASI		PELOrigin		LLFC		RElbow		RElbowM		LPSI		RTH3		LTB2		RPSI		LHJC		MidPelvis		OPelvis		RHJC		SACR		XPelvis		YPelvis		ZPelvis		LFHD		LMMAL		LCAL		RBHD		RUA1		LMT5		T10		STRN		RACR1		LTH2		RMFC		RLMAL		RKJC		LLMAL		RFHD		CLAV		LTH4		RWRR		LTB1		LTH1		LTB3		LTB4		RTB1		LMT1		RTH1		RTH4
			X1	Y1	Z1	X2	Y2	Z2	X3	Y3	Z3	X4	Y4	Z4	X5	Y5	Z5	X6	Y6	Z6	X7	Y7	Z7	X8	Y8	Z8	X9	Y9	Z9	X10	Y10	Z10	X11	Y11	Z11	X12	Y12	Z12	X13	Y13	Z13	X14	Y14	Z14	X15	Y15	Z15	X16	Y16	Z16	X17	Y17	Z17	X18	Y18	Z18	X19	Y19	Z19	X20	Y20	Z20	X21	Y21	Z21	X22	Y22	Z22	X23	Y23	Z23	X24	Y24	Z24	X25	Y25	Z25	X26	Y26	Z26	X27	Y27	Z27	X28	Y28	Z28	X29	Y29	Z29	X30	Y30	Z30	X31	Y31	Z31	X32	Y32	Z32	X33	Y33	Z33	X34	Y34	Z34	X35	Y35	Z35	X36	Y36	Z36	X37	Y37	Z37	X38	Y38	Z38	X39	Y39	Z39	X40	Y40	Z40	X41	Y41	Z41	X42	Y42	Z42	X43	Y43	Z43	X44	Y44	Z44	X45	Y45	Z45	X46	Y46	Z46	X47	Y47	Z47	X48	Y48	Z48	X49	Y49	Z49	X50	Y50	Z50	X51	Y51	Z51	X52	Y52	Z52	X53	Y53	Z53	X54	Y54	Z54	X55	Y55	Z55	X56	Y56	Z56	X57	Y57	Z57	X58	Y58	Z58	X59	Y59	Z59	X60	Y60	Z60	X61	Y61	Z61	X62	Y62	Z62	X63	Y63	Z63	X64	Y64	Z64	X65	Y65	Z65	X66	Y66	Z66	X67	Y67	Z67

787	3.935	132.47	1611.9	8.6953	9	2014	4	149.33	821.9	-215.17	221.45	525.09	185.7	89.625	1098.1	-221.24	258.51	679.13	170.4	376.37	27.196	140.89	187.1	1426	-99.776	280.87	23.989	182.17	100.12	1479.5	73.717	236.02	286.01	170.6	102.65	956.74	-223.53	142.41	1228.5	-181.57	225.25	199.33	95.236	322.04	28.168	101.32	241.09	286.79	95.784	221.6	807.71	-198.8	194.06	69.543	68.82	12.599	64.639	-2.5599	212.2	789.47	336.55	111.07	33.364	88.684	210.27	566.84	-77.893	204.33	995.33	209.57	124.22	925.46	347.57	196.97	1037	-98.549	200.65	1016.2	55.511	198.93	509.32	-72.179	94.9	1084.7	348.92	55.908	1090.5	272	4.5614	1037.5	30.966	213.65	571.53	190.92	97.052	329.86	-68.176	7.3716	1042.3	100.42	113.33	941.41	-59.263	103.31	1028.1	60.602	200.65	1016.2	55.511	118.34	913.05	150.26	5.9665	1039.9	65.693	279.98	1006.4	52.29	210.79	1094.9	65.917	202.55	1005.5	134.77	311.59	1643	32.239	-93.758	184.35	17.793	-181.12	209.56	-23.643	139.04	1604.5	145.35	172.22	1241.7	307.79	-52.673	77.28	-65.383	23.283	1222.9	70.848	217.97	1199.1	60.667	82.761	1366.5	222.24	255.01	672.01	-50.229	194.41	492.77	63.11	166.93	67.273	146.66	207.93	508.93	124.4	-112.02	187.48	-66.123	314.55	1640.5	107.2	246.55	1404.9	63.386	196.1	659.82	-92.676	211.05	833.01	285.3	169.41	386.67	6.909	181.6	750.97	-104.1	24.273	268.41	-0.56822	97.801	328.12	5.017	256.77	384.75	99.644	-37.806	67.955	13.506	177.89	757.05	232.7	200.94	661.55	214.06
788	3.94	137.51	1612.5	8.4729	9	2014	4	150.22	822.23	-215.46	223.58	524.94	185.76	92.702	1098.9	-220.95	261.47	678.79	170.5	376.52	26.865	140.9	191.89	1426.4	-99.907	280.84	23.932	182.2	105.12	1480.1	73.622	237.08	285.72	170.53	104.65	957.5	-223.54	146.19	1229	-181.55	225.89	199.14	95.132	322.06	28.082	101.33	242.06	286.53	95.733	222.35	807.38	-199.16	194.17	69.454	68.679	27.547	64.545	-2.7337	219.29	790.85	336.93	111.08	33.405	88.623	218.61	568.27	-77.959	208.92	995.88	210.03	130.61	926.28	347.99	201.81	1037.4	-98.264	205.37	1016.7	55.884	208.23	510.99	-72.299	100.49	1085.5	349.42	61.446	1091	272.47	9.3766	1038.2	31.175	216.05	571.39	191	108.19	330.52	-68.294	12.169	1042.9	100.64	118.03	941.85	-58.963	108.07	1028.6	60.896	205.37	1016.7	55.884	122.87	913.6	150.68	10.773	1040.5	65.907	284.69	1006.8	52.724	215.56	1095.3	66.252	207.19	1006	135.15	316.66	1643.5	32.007	-80.949	182.98	17.822	-168.76	206.9	-23.539	144.07	1605.2	145.13	177.51	1242.5	307.96	-38.351	76.644	-65.384	28.186	1223.5	71.062	222.78	1199.6	61.039	87.788	1367.3	222.3	262.66	673.9	-50.84	196.48	492.74	63.054	167.1	67.392	146.64	210.03	508.84	124.41	-99.324	185.88	-66.045	319.61	1641	106.97	251.46	1405.4	63.222	203.41	661.14	-92.808	217.82	834.35	285.65	180.08	387.96	6.7652	187.89	752.19	-104.31	36.034	268.35	-0.60854	109.42	328.88	4.951	258.19	384.62	99.484	-23.008	67.629	13.44	181.29	757.23	232.84	203.84	661.56	214.19
789	3.945	142.55	1613.1	8.2279	9	2014	4	151.12	822.58	-215.75	225.66	524.78	185.81	95.776	1099.7	-220.67	264.41	678.43	170.59	376.66	26.544	140.91	196.66	1426.8	-100.05	280.81	23.868	182.24	110.1	1480.7	73.514	238.13	285.44	170.45	106.64	958.27	-223.55	149.98	1229.6	-181.51	226.52	198.94	95.023	322.08	27.993	101.35	243	286.26	95.676	223.11	807.07	-199.53	194.28	69.365	68.536	42.763	64.362	-2.9627	226.36	792.23	337.31	111.1	33.447	88.558	226.89	569.74	-78.034	213.5	996.39	210.49	137	927.1	348.39	206.61	1037.8	-97.989	210.05	1017.1	56.248	217.43	512.69	-72.426	106.07	1086.2	349.91	66.986	1091.5	272.92	14.178	1038.8	31.379	218.42	571.24	191.05	119.35	331.13	-68.426	16.956	1043.5	100.85	122.69	942.28	-58.675	112.81	1029.1	61.181	210.05	1017.1	56.248	127.36	914.11	151.09	15.567	1041.2	66.114	289.37	1007.2	53.145	220.31	1095.8	66.582	211.82	1006.5	135.52	321.72	1643.9	31.749	-67.93	181.39	17.863	-156.2	203.93	-23.384	149.1	1605.8	144.88	182.81	1243.3	308.11	-23.765	75.864	-65.42	33.083	1224.1	71.281	227.57	1200	61.415	92.81	1368	222.36	270.23	675.81	-51.432	198.46	492.69	63.005	167.28	67.523	146.61	212.06	508.74	124.41	-86.444	184.06	-65.949	324.67	1641.5	106.72	256.37	1405.9	63.042	210.69	662.47	-92.954	224.58	835.68	285.99	190.67	389.2	6.625	194.17	753.41	-104.52	47.9	268.15	-0.67118	121.04	329.56	4.8655	259.59	384.47	99.309	-7.927	67.14	13.33	184.77	757.31	232.99	206.71	661.55	214.31
790	3.95	147.58	1613.6	7.961	9	2014	4	152.03	822.95	-216.05	227.7	524.61	185.85	98.851	1100.5	-220.4	267.33	678.06	170.66	376.79	26.233	140.92	201.43	1427.1	-100.2	280.77	23.797	182.27	115.06	1481.3	73.392	239.17	285.16	170.36	108.64	959.04	-223.56	153.78	1230.1	-181.46	227.14	198.75	94.91	322.1	27.901	101.37	243.92	285.98	95.614	223.88	806.76	-199.91	194.39	69.275	68.394	58.233	64.107	-3.2479	233.4	793.61	337.68	111.11	33.49	88.491	235.11	571.23	-78.123	218.05	996.86	210.92	143.36	927.92	348.76	211.39	1038.2	-97.726	214.72	1017.5	56.599	226.53	514.4	-72.562	111.66	1086.9	350.38	72.527	1092	273.37	18.965	1039.5	31.577	220.76	571.08	191.09	130.53	331.68	-68.574	21.732	1044.1	101.05	127.3	942.69	-58.401	117.53	1029.6	61.456	214.72	1017.5	56.599	131.83	914.59	151.48	20.348	1041.8	66.314	294.03	1007.5	53.545	225.05	1096.2	66.906	216.43	1006.9	135.87	326.79	1644.3	31.464	-54.705	179.57	17.911	-143.43	200.67	-23.184	154.13	1606.4	144.62	188.11	1244.1	308.26	-8.9248	74.954	-65.493	37.973	1224.7	71.502	232.34	1200.4	61.787	97.828	1368.8	222.41	277.72	677.74	-52.001	200.35	492.62	62.966	167.47	67.665	146.58	214.02	508.61	124.41	-73.379	182.02	-65.838	329.74	1642	106.43	261.27	1406.4	62.846	217.95	663.81	-93.118	231.34	837.01	286.32	201.16	390.41	6.4882	200.42	754.63	-104.74	59.869	267.82	-0.75924	132.65	330.17	4.7578	260.97	384.3	99.128	7.4239	66.504	13.174	188.33	757.28	233.14	209.57	661.52	214.41
791	3.955	152.62	1614.1	7.6726	9	2014	4	152.94	823.33	-216.35	229.7	524.43	185.87	101.93	1101.3	-220.12	270.24	677.68	170.71	376.92	25.938	140.93	206.18	1427.5	-100.36	280.73	23.721	182.3	120.01	1481.8	73.258	240.21	284.88	170.25	110.64	959.81	-223.56	157.59	1230.6	-181.41	227.75	198.55	94.791	322.11	27.806	101.39	244.82	285.7	95.546	224.65	806.46	-200.3	194.5	69.186	68.252	73.943	63.798	-3.5892	240.42	794.97	338.04	111.12	33.534	88.421	243.27	572.74	-78.228	222.6	997.27	211.35	149.72	928.73	349.12	216.12	1038.5	-97.478	219.36	1017.9	56.934	235.52	516.11	-72.709	117.25	1087.6	350.84	78.069	1092.5	273.81	23.737	1040.1	31.77	223.09	570.9	191.1	141.72	332.19	-68.737	26.498	1044.7	101.25	131.87	943.09	-58.14	122.24	1030.1	61.721	219.36	1017.9	56.934	136.28	915.05	151.86	25.117	1042.4	66.509	298.66	1007.8	53.922	229.77	1096.5	67.219	221.02	1007.3	136.21	331.86	1644.7	31.152	-41.282	177.56	17.963	-130.46	197.13	-22.945	159.17	1607	144.33	193.4	1244.9	308.39	6.1602	73.928	-65.605	42.856	1225.2	71.726	237.1	1200.8	62.151	102.84	1369.5	222.45	285.11	679.69	-52.544	202.17	492.52	62.934	167.66	67.811	146.54	215.93	508.47	124.4	-60.13	179.77	-65.716	334.82	1642.4	106.13	266.18	1406.8	62.635	225.17	665.17	-93.302	238.09	838.32	286.64	211.56	391.58	6.3529	206.66	755.85	-104.97	71.937	267.36	-0.87499	144.22	330.69	4.6253	262.32	384.1	98.954	23.034	65.738	12.971	191.99	757.14	233.28	212.41	661.46	214.48
792	3.96	157.65	1614.6	7.3636	9	2014	4	153.88	823.73	-216.66	231.64	524.23	185.88	105.01	1102.1	-219.86	273.15	677.28	170.76	377.04	25.659	140.94	210.92	1427.8	-100.54	280.68	23.644	182.32	124.94	1482.3	73.113	241.25	284.6	170.14	112.64	960.58	-223.55	161.42	1231	-181.36	228.35	198.35	94.668	322.13	27.71	101.42	245.71	285.41	95.472	225.43	806.16	-200.7	194.6	69.097	68.115	89.882	63.45	-3.9859	247.42	796.32	338.38	111.12	33.579	88.349	251.34	574.28	-78.351	227.14	997.65	211.75	156.07	929.53	349.46	220.82	1038.8	-97.247	223.98	1018.2	57.25	244.41	517.83	-72.871	122.84	1088.3	351.29	83.612	1093	274.24	28.495	1040.7	31.959	225.4	570.72	191.1	152.93	332.65	-68.913	31.254	1045.2	101.44	136.4	943.47	-57.895	126.93	1030.6	61.975	223.98	1018.2	57.25	140.7	915.46	152.22	29.874	1042.9	66.699	303.27	1008	54.27	234.48	1096.9	67.519	225.6	1007.7	136.53	336.93	1645.1	30.814	-27.666	175.35	18.016	-117.28	193.32	-22.673	164.21	1607.6	144.02	198.7	1245.7	308.52	21.481	72.8	-65.757	47.734	1225.8	71.95	241.84	1201.1	62.502	107.86	1370.3	222.49	292.39	681.64	-53.061	203.95	492.39	62.907	167.86	67.956	146.48	217.8	508.31	124.39	-46.701	177.33	-65.587	339.89	1642.8	105.79	271.08	1407.2	62.411	232.36	666.54	-93.504	244.84	839.61	286.93	221.88	392.73	6.2154	212.88	757.07	-105.2	84.102	266.77	-1.0198	155.74	331.13	4.4651	263.66	383.84	98.797	38.892	64.855	12.722	195.73	756.91	233.43	215.26	661.39	214.53
793	3.965	162.69	1615.1	7.0347	9	2014	4	154.82	824.12	-216.96	233.55	524.02	185.87	108.1	1102.8	-219.59	276.05	676.87	170.79	377.15	25.4	140.95	215.66	1428.1	-100.73	280.63	23.569	182.35	129.87	1482.8	72.958	242.28	284.32	170.02	114.66	961.34	-223.54	165.25	1231.5	-181.3	228.94	198.15	94.541	322.14	27.614	101.45	246.59	285.13	95.391	226.23	805.88	-201.11	194.7	69.008	67.982	106.04	63.076	-4.4366	254.4	797.64	338.72	111.13	33.626	88.275	259.34	575.83	-78.495	231.67	997.97	212.12	162.41	930.33	349.79	225.48	1039.1	-97.033	228.57	1018.6	57.546	253.19	519.55	-73.05	128.44	1089	351.73	89.154	1093.5	274.67	33.237	1041.2	32.144	227.69	570.54	191.09	164.15	333.06	-69.103	36.002	1045.8	101.63	140.89	943.84	-57.666	131.6	1031	62.215	228.57	1018.6	57.546	145.09	915.85	152.56	34.62	1043.5	66.885	307.85	1008.2	54.587	239.18	1097.2	67.802	230.16	1008	136.83	342.01	1645.4	30.449	-13.864	172.96	18.068	-103.9	189.27	-22.376	169.25	1608.2	143.69	204	1246.4	308.63	37.028	71.58	-65.949	52.605	1226.3	72.174	246.56	1201.3	62.835	112.87	1371	222.51	299.58	683.6	-53.551	205.73	492.25	62.88	168.05	68.092	146.41	219.64	508.14	124.38	-33.094	174.71	-65.456	344.98	1643.2	105.43	275.98	1407.6	62.174	239.5	667.91	-93.727	251.58	840.89	287.21	232.13	393.86	6.0709	219.08	758.28	-105.46	96.361	266.07	-1.194	167.18	331.49	4.2748	264.98	383.53	98.665	54.987	63.872	12.425	199.54	756.6	233.57	218.11	661.29	214.56
